<svg xmlns="http://www.w3.org/2000/svg" width="623" height="651" viewBox="1045 249 623 651"><g data-name="Image"><g data-name="Design Elements"><path d="M1515.291 249 1138 522.785l.672 377.215H1523l-7.709-651Z" fill="#beebff" fill-rule="evenodd" data-name="Vector 3"/><path d="m1441.477 279-1.608 17.13 17.131-1.607-13.25 10.977 13.25 10.977-17.13-1.608 1.607 17.131-10.977-13.25-10.977 13.25 1.608-17.13-17.131 1.607 13.25-10.977-13.25-10.977 17.13 1.608-1.607-17.131 10.977 13.25z" fill="#12141d" fill-rule="evenodd" data-name="Star 7"/><g data-name="Elements"><g data-name="Group"><g data-name="Group"><path d="M1495.78 750.513h-13.025M1489.267 744v13.025" stroke-linejoin="round" stroke-linecap="round" stroke-width="1.5" stroke="#fff" fill="transparent" data-name="Vector"/></g><g data-name="Group"><path d="M1495.78 785.799h-13.025M1489.268 779.404v12.907" stroke-linejoin="round" stroke-linecap="round" stroke-width="1.5" stroke="#fff" fill="transparent" data-name="Vector"/></g><g data-name="Group"><path d="M1495.78 821.205h-13.026M1489.267 814.691v13.025" stroke-linejoin="round" stroke-linecap="round" stroke-width="1.5" stroke="#fff" fill="transparent" data-name="Vector"/></g><g data-name="Group"><path d="M1495.78 856.61h-13.026M1489.267 850.096v12.906" stroke-linejoin="round" stroke-linecap="round" stroke-width="1.5" stroke="#fff" fill="transparent" data-name="Vector"/></g></g><g data-name="Group"><g data-name="Group"><path d="M1468.9 750.513h-13.024M1462.388 744v13.025" stroke-linejoin="round" stroke-linecap="round" stroke-width="1.5" stroke="#fff" fill="transparent" data-name="Vector"/></g><g data-name="Group"><path d="M1468.9 785.8h-13.024M1462.388 779.405v12.906" stroke-linejoin="round" stroke-linecap="round" stroke-width="1.5" stroke="#fff" fill="transparent" data-name="Vector"/></g><g data-name="Group"><path d="M1468.9 821.205h-13.025M1462.387 814.691v13.025" stroke-linejoin="round" stroke-linecap="round" stroke-width="1.5" stroke="#fff" fill="transparent" data-name="Vector"/></g><g data-name="Group"><path d="M1468.9 856.61h-13.025M1462.387 850.096v12.906" stroke-linejoin="round" stroke-linecap="round" stroke-width="1.5" stroke="#fff" fill="transparent" data-name="Vector"/></g></g><g data-name="Group"><g data-name="Group"><path d="M1441.904 750.513h-12.906M1435.51 744v13.025" stroke-linejoin="round" stroke-linecap="round" stroke-width="1.5" stroke="#fff" fill="transparent" data-name="Vector"/></g><g data-name="Group"><path d="M1441.904 785.799h-12.906M1435.51 779.404v12.907" stroke-linejoin="round" stroke-linecap="round" stroke-width="1.5" stroke="#fff" fill="transparent" data-name="Vector"/></g><g data-name="Group"><path d="M1441.904 821.205h-12.906M1435.51 814.691v13.025" stroke-linejoin="round" stroke-linecap="round" stroke-width="1.5" stroke="#fff" fill="transparent" data-name="Vector"/></g><g data-name="Group"><path d="M1441.904 856.61h-12.906M1435.51 850.096v12.906" stroke-linejoin="round" stroke-linecap="round" stroke-width="1.5" stroke="#fff" fill="transparent" data-name="Vector"/></g></g><g data-name="Group"><g data-name="Group"><path d="M1415.025 750.513H1402M1408.513 744v13.025" stroke-linejoin="round" stroke-linecap="round" stroke-width="1.5" stroke="#fff" fill="transparent" data-name="Vector"/></g><g data-name="Group"><path d="M1415.025 785.8H1402M1408.513 779.405v12.906" stroke-linejoin="round" stroke-linecap="round" stroke-width="1.5" stroke="#fff" fill="transparent" data-name="Vector"/></g><g data-name="Group"><path d="M1415.025 821.205h-13.024M1408.513 814.691v13.025" stroke-linejoin="round" stroke-linecap="round" stroke-width="1.5" stroke="#fff" fill="transparent" data-name="Vector"/></g><g data-name="Group"><path d="M1415.025 856.61h-13.024M1408.513 850.096v12.906" stroke-linejoin="round" stroke-linecap="round" stroke-width="1.5" stroke="#fff" fill="transparent" data-name="Vector"/></g></g></g><path d="M1442 582.528c5 0 62-60 71.5-58.5s-19.5 81-14 82c4.4.8 40.5-45.333 58-68.5 3.167-2.5 2.1 11.3-27.5 86.5 20-39.6 100.333-74.167 138-86.5" stroke-linejoin="round" stroke-linecap="round" stroke-width="2" stroke="#191919" fill="transparent" data-name="Vector 4"/><g data-name="Group 1000004919"><path d="M1077.174 407.327c-12.527-12.527-4.64-39.438.87-51.327" stroke-linejoin="round" stroke-linecap="round" stroke-width="2" stroke="#191919" fill="transparent" data-name="Vector 201"/><path d="M1061.914 422.961c-16.501-11.99-12.424-44.048-8.323-58.577" stroke-linejoin="round" stroke-linecap="round" stroke-width="2" stroke="#191919" fill="transparent" data-name="Vector 202"/></g></g></g></svg>